{"title":"Eetti 2015 Tamil Movies DVDRip XviD New Source with Sample ☻rDX☻","uid":13271081,"size":739590775,"categoryP":"video","categoryS":"movies","magnet":"?xt=urn:btih:1d753fd55754b2b1e2b7babc7c74573f692ff28a&amp;dn=Eetti+2015+Tamil+Movies+DVDRip+XviD+New+Source+with+Sample+%E2%98%BBrDX%E2%98%BB&amp;tr=udp%3A%2F%2Ftracker.leechers-paradise.org%3A6969&amp;tr=udp%3A%2F%2Fzer0day.ch%3A1337&amp;tr=udp%3A%2F%2Fopen.demonii.com%3A1337&amp;tr=udp%3A%2F%2Ftracker.coppersurfer.tk%3A6969&amp;tr=udp%3A%2F%2Fexodus.desync.com%3A6969","seeders":1,"leechers":0,"uploader":"basicssom","files":2,"time":1453401108,"description":"----------------------------------------------------------------\r\nEetti 2015 Tamil Movies DVDRip XviD AAC New Source with Sample ~ ☻rDX☻\r\n\r\nSCREEN SHOTS &amp; POSTER:\r\n  \nhttp://doctorhosts.com/2016/1/Eetti/11.html  \nhttp://doctorhosts.com/2016/1/Eetti/1.html  \nhttp://doctorhosts.com/2016/1/Eetti/2.html  \nhttp://doctorhosts.com/2016/1/Eetti/3.html  \nhttp://doctorhosts.com/2016/1/Eetti/4.html  \nhttp://doctorhosts.com/2016/1/Eetti/5.html  \nhttp://doctorhosts.com/2016/1/Eetti/6.html  \nhttp://doctorhosts.com/2016/1/Eetti/7.html  \nhttp://doctorhosts.com/2016/1/Eetti/8.html  \nhttp://doctorhosts.com/2016/1/Eetti/9.html  \nhttp://doctorhosts.com/2016/1/Eetti/10.html\r\n\r\nFormat                                   : Matroska\r\nFormat version                           : Version 4 / Version 2\r\nFile size                                : 698 MiB\r\nDuration                                 : 2h 20mn\r\nOverall bit rate                         : 694 Kbps\r\nMovie name                               : Eetti 2015 Tamil Movies DVDRip XviD AAC New Source ☻rDX☻\r\n\r\nVideo\r\nID                                       : 1\r\nFormat                                   : AVC\r\nFormat/Info                              : Advanced Video Codec\r\nFormat profile                           :   \r\nFormat settings, CABAC                   : Yes\r\nFormat settings, ReFrames                : 4 frames\r\nCodec ID                                 : V_MPEG4/ISO/AVC\r\nDuration                                 : 2h 20mn\r\nBit rate                                 : 596 Kbps\r\nWidth                                    : 640 pixels\r\nHeight                                   : 272 pixels\r\nDisplay aspect ratio                     : 2.35:1\r\nFrame rate mode                          : Constant\r\nFrame rate                               : 25.000 fps\r\nColor space                              : YUV\r\nChroma subsampling                       : 4:2:0\r\nBit depth                                : 8 bits\r\nScan type                                : Progressive\r\nBits/(Pixel*Frame)                       : 0.137\r\nStream size                              : 588 MiB (84%)\r\nTitle                                    : ☻rDX☻\r\nWriting library                          : XviD\r\nLanguage                                 : Tamil\r\nDefault                                  : Yes\r\nForced                                   : Yes\r\n\r\nAudio\r\nID                                       : 2\r\nFormat                                   : MPEG Audio\r\nFormat version                           : Version 1\r\nFormat profile                           : Layer 3\r\nMode                                     : Joint stereo\r\nMode extension                           : MS Stereo\r\nCodec ID                                 : A_MPEG/L3\r\nCodec ID/Hint                            : MP3\r\nDuration                                 : 2h 20mn\r\nBit rate mode                            : Constant\r\nBit rate                                 : 96.0 Kbps\r\nChannel(s)                               : 2 channels\r\nSampling rate                            : 48.0 KHz\r\nCompression mode                         : Lossy\r\nStream size                              : 96.7 MiB (14%)\r\nTitle                                    : ☻rDX☻\r\nWriting library                          : LAME3.97\r\nLanguage                                 : Tamil\r\nDefault                                  : Yes\r\nForced                                   : Yes\r\n\r\nIMDB                                      \nhttp://www.imdb.com/title/tt5290414/","torrent":{"xt":"urn:btih:1d753fd55754b2b1e2b7babc7c74573f692ff28a","amp;dn":"Eetti+2015+Tamil+Movies+DVDRip+XviD+New+Source+with+Sample+%E2%98%BBrDX%E2%98%BB","amp;tr":["udp%3A%2F%2Ftracker.leechers-paradise.org%3A6969","udp%3A%2F%2Fzer0day.ch%3A1337","udp%3A%2F%2Fopen.demonii.com%3A1337","udp%3A%2F%2Ftracker.coppersurfer.tk%3A6969","udp%3A%2F%2Fexodus.desync.com%3A6969"],"infoHash":"1d753fd55754b2b1e2b7babc7c74573f692ff28a","infoHashBuffer":{"type":"Buffer","data":[29,117,63,213,87,84,178,177,226,183,186,188,124,116,87,63,105,47,242,138]},"announce":[],"urlList":[]}}